<?xml version="1.0" encoding="UTF-8"?>
<svg id="Icons" xmlns="http://www.w3.org/2000/svg" viewBox="0 0 60 60">
  <defs>
    <style>
      .cls-1 {
        fill: #386097;
        stroke-width: 0px;
      }
    </style>
  </defs>
  <path class="cls-1" d="m1,47.36c-.12,0-.24-.04-.33-.13-.21-.18-.23-.5-.04-.71l19.79-22.26c1.19-1.31,3.19-1.46,4.55-.34l12.05,10.04c.95.78,2.34.67,3.17-.25l18.44-20.91c.18-.21.5-.23.71-.04.21.18.23.5.04.71l-18.45,20.92c-1.18,1.32-3.18,1.47-4.55.35l-12.05-10.04c-.95-.78-2.34-.67-3.17.24L1.37,47.19c-.1.11-.24.17-.37.17Z"/>
  <path class="cls-1" d="m59,29.77c-.28,0-.5-.22-.5-.5v-15.63h-18.22c-.28,0-.5-.22-.5-.5s.22-.5.5-.5h18.72c.28,0,.5.22.5.5v16.13c0,.28-.22.5-.5.5Z"/>
</svg>