<?xml version="1.0" encoding="UTF-8"?>
<svg id="Icons" xmlns="http://www.w3.org/2000/svg" viewBox="0 0 60 60">
  <defs>
    <style>
      .cls-1 {
        fill: #386097;
        stroke-width: 0px;
      }
    </style>
  </defs>
  <path class="cls-1" d="m25.31,57.49c-.17,0-.34-.09-.43-.25-3.73-6.46-12.03-8.69-18.49-4.95-2.05,1.19-3.77,2.9-4.95,4.95-.14.24-.45.32-.68.18-.24-.14-.32-.44-.18-.68,1.27-2.21,3.11-4.05,5.32-5.32,6.94-4.01,15.85-1.62,19.86,5.32.14.24.06.54-.18.68-.08.05-.16.07-.25.07Z"/>
  <path class="cls-1" d="m13.16,46.26c-4.92,0-8.92-4-8.92-8.92s4-8.92,8.92-8.92,8.92,4,8.92,8.92-4,8.92-8.92,8.92Zm0-16.84c-4.37,0-7.92,3.55-7.92,7.92s3.55,7.92,7.92,7.92,7.92-3.55,7.92-7.92-3.55-7.92-7.92-7.92Z"/>
  <path class="cls-1" d="m34.69,57.49c-.08,0-.17-.02-.25-.07-.24-.14-.32-.44-.18-.68,4.01-6.94,12.92-9.33,19.86-5.32,2.21,1.27,4.04,3.11,5.32,5.32.14.24.06.54-.18.68-.24.14-.54.06-.68-.18-1.19-2.06-2.9-3.77-4.95-4.95-6.46-3.73-14.76-1.51-18.49,4.95-.09.16-.26.25-.43.25Z"/>
  <path class="cls-1" d="m46.84,46.26c-4.92,0-8.92-4-8.92-8.92s4-8.92,8.92-8.92,8.92,4,8.92,8.92-4,8.92-8.92,8.92Zm0-16.84c-4.37,0-7.92,3.55-7.92,7.92s3.55,7.92,7.92,7.92,7.92-3.55,7.92-7.92-3.55-7.92-7.92-7.92Z"/>
  <path class="cls-1" d="m30,29.41c-.06,0-.13-.01-.19-.04-.19-.08-.31-.26-.31-.46v-5.48h-13.45c-1.37,0-2.49-1.12-2.49-2.49V5.01c0-1.37,1.12-2.49,2.49-2.49h27.89c1.37,0,2.49,1.12,2.49,2.49v15.94c0,1.37-1.12,2.49-2.49,2.49h-7.76l-5.83,5.83c-.1.1-.22.15-.35.15ZM16.05,3.51c-.82,0-1.49.67-1.49,1.49v15.94c0,.82.67,1.49,1.49,1.49h13.95c.28,0,.5.22.5.5v4.77l5.12-5.12c.09-.09.22-.15.35-.15h7.97c.82,0,1.49-.67,1.49-1.49V5.01c0-.82-.67-1.49-1.49-1.49h-27.89Z"/>
</svg>