<?xml version="1.0" encoding="utf-8"?>
<!-- Generator: Adobe Illustrator 28.0.0, SVG Export Plug-In . SVG Version: 6.00 Build 0)  -->
<svg version="1.1" id="Icons" xmlns="http://www.w3.org/2000/svg" xmlns:xlink="http://www.w3.org/1999/xlink" x="0px" y="0px"
	 viewBox="0 0 60 60" style="enable-background:new 0 0 60 60;" xml:space="preserve">
<style type="text/css">
	.st0{fill:none;stroke:#386097;stroke-linecap:round;stroke-linejoin:round;}
</style>
<path class="st0" d="M18.7,59L20,43.9h6.3V35c0-7-5.6-12.6-12.6-12.6S1.1,28.1,1.1,35v8.8h6.3L8.6,59C8.6,59,18.7,59,18.7,59z"/>
<circle class="st0" cx="13.7" cy="9.8" r="8.8"/>
<path class="st0" d="M43.8,25.9c-3.8-3.6-9.3-4.5-14-2.3"/>
<circle class="st0" cx="35.1" cy="11.1" r="7.6"/>
<path class="st0" d="M56,56.8H31.3c-1.3,0-2.4-0.9-2.6-2.2l-0.3-1.8h30.6l-0.3,1.8C58.4,55.9,57.3,56.8,56,56.8L56,56.8z"/>
<path class="st0" d="M31,34.2h25.3c0.7,0,1.3,0.6,1.3,1.3v17.3H29.7V35.6C29.7,34.8,30.3,34.2,31,34.2z"/>
<path class="st0" d="M49.8,42.2v6c-3.8,2.1-8.5,2.1-12.3,0v-6"/>
<polygon class="st0" points="32.9,40.6 43.7,44.4 54.4,40.6 43.7,36.7 "/>
<line class="st0" x1="34.4" y1="41.2" x2="34.4" y2="45.8"/>
</svg>
