<?xml version="1.0" encoding="UTF-8"?>
<svg id="Icons" xmlns="http://www.w3.org/2000/svg" viewBox="0 0 60 60">
  <defs>
    <style>
      .cls-1 {
        fill: #386097;
        stroke-width: 0px;
      }
    </style>
  </defs>
  <path class="cls-1" d="m30,59.5c-5.23,0-9.48-4.25-9.48-9.48s4.25-9.48,9.48-9.48,9.48,4.25,9.48,9.48-4.25,9.48-9.48,9.48Zm0-17.96c-4.67,0-8.48,3.8-8.48,8.48s3.8,8.48,8.48,8.48,8.48-3.8,8.48-8.48-3.8-8.48-8.48-8.48Z"/>
  <path class="cls-1" d="m33.76,39.16c-.07,0-.15-.02-.21-.05-.25-.12-.36-.42-.24-.67l3.43-7.19c.12-.25.42-.35.67-.24.25.12.36.42.24.67l-3.43,7.19c-.08.18-.26.29-.45.29Z"/>
  <path class="cls-1" d="m36.22,40.31c-.07,0-.14-.02-.21-.05-.25-.12-.36-.42-.24-.67l3.95-8.34c.12-.25.42-.35.67-.24.25.12.36.42.24.67l-3.95,8.34c-.09.18-.27.29-.45.29Z"/>
  <path class="cls-1" d="m36.22,40.31c-.07,0-.14-.02-.21-.05-.25-.12-.36-.42-.24-.67l3.95-8.34c.12-.25.42-.35.67-.24.25.12.36.42.24.67l-3.95,8.34c-.09.18-.27.29-.45.29Z"/>
  <path class="cls-1" d="m38.36,41.97c-.07,0-.15-.02-.22-.05-.25-.12-.35-.42-.23-.67l4.8-10c.12-.25.42-.35.67-.23.25.12.35.42.23.67l-4.8,10c-.09.18-.27.28-.45.28Z"/>
  <path class="cls-1" d="m26.24,39.16c-.19,0-.37-.1-.45-.29l-3.43-7.19c-.12-.25-.01-.55.24-.67.25-.12.55-.01.67.24l3.43,7.19c.12.25.01.55-.24.67-.07.03-.14.05-.21.05Z"/>
  <path class="cls-1" d="m23.78,40.31c-.19,0-.37-.11-.45-.29l-3.95-8.34c-.12-.25-.01-.55.24-.67.25-.12.55-.01.67.24l3.95,8.34c.12.25.01.55-.24.67-.07.03-.14.05-.21.05Z"/>
  <path class="cls-1" d="m23.78,40.31c-.19,0-.37-.11-.45-.29l-3.95-8.34c-.12-.25-.01-.55.24-.67.25-.12.55-.01.67.24l3.95,8.34c.12.25.01.55-.24.67-.07.03-.14.05-.21.05Z"/>
  <path class="cls-1" d="m21.63,41.97c-.19,0-.37-.1-.45-.28l-4.8-10c-.12-.25-.01-.55.23-.67.25-.12.55-.02.67.23l4.8,10c.12.25.01.55-.23.67-.07.03-.14.05-.22.05Z"/>
  <path class="cls-1" d="m26.91,55.31c-.39,0-.77-.2-.98-.56-.17-.3-.2-.68-.07-1l1.02-2.34-1.83-1.8c-.2-.17-.33-.43-.35-.72-.02-.29.07-.57.26-.79.22-.25.54-.37.87-.37h2.05s1.1-2.36,1.1-2.36c.15-.29.38-.49.67-.58.29-.09.6-.07.87.07.21.11.38.28.49.49,0,0,0,.01,0,.02l1.1,2.36h2.07c.28-.01.55.09.76.29.21.2.34.47.35.76.01.33-.12.64-.36.85l-1.82,1.79,1.01,2.33c.12.28.12.59,0,.87s-.33.5-.61.61c-.32.14-.7.11-1-.06l-2.53-1.42-2.54,1.43c-.17.1-.37.15-.56.15Zm-1.1-6.58l-.11.09,2.13,2.12c.15.15.19.37.11.56l-1.15,2.64s0,.07.01.1c.04.06.11.08.17.05l2.79-1.57c.15-.09.34-.09.49,0l2.78,1.56s.08.03.12.01l.53-.36-.46.2-1.15-2.64c-.08-.19-.04-.41.11-.56l2.08-2.04.02-.14-2.48-.02c-.19,0-.37-.11-.45-.29l-1.23-2.64s-.03-.04-.06-.05c-.04-.02-.08-.02-.1,0-.02,0-.06.03-.08.07l-1.22,2.63c-.08.18-.26.29-.45.29h-2.39Z"/>
  <path class="cls-1" d="m44.35,14.82c-2.82,0-5.11-2.29-5.11-5.11s2.29-5.11,5.11-5.11,5.11,2.29,5.11,5.11-2.29,5.11-5.11,5.11Zm0-9.22c-2.27,0-4.11,1.84-4.11,4.11s1.84,4.11,4.11,4.11,4.11-1.84,4.11-4.11-1.84-4.11-4.11-4.11Z"/>
  <path class="cls-1" d="m53.57,24.04c-.22,0-.43-.15-.48-.38-1.23-4.81-6.16-7.73-10.96-6.5-.69.18-1.36.44-1.99.77-.24.13-.55.04-.68-.21-.13-.24-.04-.55.21-.68.7-.37,1.45-.66,2.21-.86,5.35-1.37,10.81,1.87,12.18,7.22.07.27-.09.54-.36.61-.04.01-.08.02-.12.02Z"/>
  <path class="cls-1" d="m15.65,14.82c-2.82,0-5.11-2.29-5.11-5.11s2.29-5.11,5.11-5.11,5.11,2.29,5.11,5.11-2.29,5.11-5.11,5.11Zm0-9.22c-2.27,0-4.11,1.84-4.11,4.11s1.84,4.11,4.11,4.11,4.11-1.84,4.11-4.11-1.84-4.11-4.11-4.11Z"/>
  <path class="cls-1" d="m6.43,24.04s-.08,0-.12-.02c-.27-.07-.43-.34-.36-.61,1.37-5.35,6.83-8.59,12.18-7.22.77.2,1.51.48,2.21.86.24.13.34.43.21.68-.13.24-.43.34-.68.21-.63-.33-1.3-.59-1.99-.77-4.81-1.23-9.73,1.68-10.96,6.5-.06.23-.26.38-.48.38Z"/>
  <path class="cls-1" d="m41.27,29.17c-.28,0-.5-.22-.5-.5,0-5.94-4.83-10.77-10.77-10.77s-10.77,4.83-10.77,10.77c0,.28-.22.5-.5.5s-.5-.22-.5-.5c0-6.49,5.28-11.77,11.77-11.77s11.77,5.28,11.77,11.77c0,.28-.22.5-.5.5Z"/>
  <path class="cls-1" d="m29.88,14.82c-3.95,0-7.16-3.21-7.16-7.16S25.93.5,29.88.5s7.16,3.21,7.16,7.16-3.21,7.16-7.16,7.16Zm0-13.32c-3.4,0-6.16,2.76-6.16,6.16s2.76,6.16,6.16,6.16,6.16-2.76,6.16-6.16-2.76-6.16-6.16-6.16Z"/>
</svg>