<?xml version="1.0" encoding="utf-8"?>
<!-- Generator: Adobe Illustrator 28.3.0, SVG Export Plug-In . SVG Version: 6.00 Build 0)  -->
<svg version="1.1" id="Layer_1" xmlns="http://www.w3.org/2000/svg" xmlns:xlink="http://www.w3.org/1999/xlink" x="0px" y="0px"
	 viewBox="0 0 250 250" style="enable-background:new 0 0 250 250;" xml:space="preserve">
<style type="text/css">
	.st0{fill:#4C79AF;stroke:#4C7AB0;stroke-miterlimit:10;}
</style>
<g>
	<path class="st0" d="M237.7,97.4L126.1,57.5c-0.4-0.2-0.9-0.2-1.3,0L13.3,97.4c-0.8,0.3-1.3,1-1.3,1.8c0,0.8,0.5,1.5,1.3,1.8
		l17.5,6.2v39.6c-5.5,9.4-8.1,20.2-7.6,31.1c0.1,1,0.9,1.8,1.9,1.8h15.2c1,0,1.9-0.8,1.9-1.8c0.5-10.9-2.1-21.6-7.6-31.1v-38.2
		l25.2,9v61.3c0,0.7,0.4,1.4,1,1.7c20.2,10.9,42.5,16.3,64.7,16.3s44.4-5.4,64.7-16.3c0.6-0.3,1-1,1-1.7v-61.3l46.5-16.6
		c0.8-0.3,1.3-1,1.3-1.8C239,98.4,238.5,97.6,237.7,97.4L237.7,97.4z M26.9,175.9c-0.1-8.6,1.9-17,5.8-24.6c3.9,7.6,5.9,16,5.8,24.6
		H26.9z M187.3,177.7c-38.8,20.4-84.9,20.4-123.7,0V119l61.2,21.9c0.2,0.1,0.4,0.1,0.6,0.1s0.4,0,0.6-0.1l61.2-21.9L187.3,177.7
		L187.3,177.7z M125.5,137L19.6,99.2l105.9-37.8l105.9,37.8L125.5,137L125.5,137z"/>
</g>
</svg>
