<?xml version="1.0" encoding="utf-8"?>
<!-- Generator: Adobe Illustrator 28.3.0, SVG Export Plug-In . SVG Version: 6.00 Build 0)  -->
<svg version="1.1" id="Layer_1" xmlns="http://www.w3.org/2000/svg" xmlns:xlink="http://www.w3.org/1999/xlink" x="0px" y="0px"
	 viewBox="0 0 250 250" style="enable-background:new 0 0 250 250;" xml:space="preserve">
<style type="text/css">
	.st0{fill:#4C79AF;stroke:#4C7AB0;stroke-miterlimit:10;}
</style>
<path class="st0" d="M228.3,15H27.2c-6.3,0-11.5,5.1-11.5,11.5v134c0,6.3,5.1,11.5,11.5,11.5h100.5c1,0,1.9-0.9,1.9-1.9
	s-0.9-1.9-1.9-1.9H27.2c-4.2,0-7.7-3.4-7.7-7.7v-134c0-4.2,3.4-7.7,7.7-7.7h201.1c4.2,0,7.7,3.4,7.7,7.7v71.8c0,1,0.9,1.9,1.9,1.9
	s1.9-0.9,1.9-1.9V26.5C239.7,20.1,234.6,15,228.3,15L228.3,15z"/>
<path class="st0" d="M190,129.9c-9,0-16.3,7.3-16.3,16.3s7.3,16.3,16.3,16.3s16.3-7.3,16.3-16.3S198.9,129.9,190,129.9z M190,158.6
	c-6.9,0-12.5-5.6-12.5-12.5c0-6.9,5.6-12.5,12.5-12.5c6.9,0,12.5,5.6,12.5,12.5S196.8,158.6,190,158.6z"/>
<path class="st0" d="M231.6,131.9c-0.6-5.6-3.3-10.6-7.7-14.1c-4.2-3.4-9.6-5.1-15-4.6c-2.1-4.6-5.8-8.2-10.5-10.3
	c-5.1-2.3-10.8-2.4-16.1-0.4c-5.1,2-9.2,5.8-11.5,10.7c-5-0.4-10,0.9-14.1,3.9c-4.5,3.3-7.5,8.2-8.4,13.7
	c-0.9,5.4,0.4,10.9,3.5,15.3c-6.2,8.9-4.6,21.4,4,28.3c1,0.8,2.2,1.6,3.3,2.2v60.4c0,0.7,0.4,1.4,1.1,1.7c0.7,0.3,1.5,0.2,2-0.3
	l27.5-22.9l27.5,22.9c0.3,0.3,0.8,0.4,1.2,0.4c0.3,0,0.6-0.1,0.8-0.2c0.7-0.3,1.1-1,1.1-1.7v-60.4c5.6-3,9.8-8.5,10.9-15.3
	c0.8-5.4-0.4-10.8-3.5-15.3C230.9,142,232.2,137,231.6,131.9L231.6,131.9z M216.8,233.1l-25.6-21.3c-0.7-0.6-1.7-0.6-2.4,0
	l-25.6,21.3v-54.8c2.5,0.8,5.2,1.1,7.8,0.8c2.1,4.6,5.8,8.2,10.5,10.3c2.7,1.2,5.6,1.8,8.5,1.8c2.5,0,5.1-0.5,7.5-1.4
	c5.1-1.9,9.2-5.8,11.5-10.7c2.7,0.2,5.3-0.1,7.8-0.8L216.8,233.1L216.8,233.1z M227.7,160.8c-1.5,9.4-10.3,15.8-19.6,14.3
	c-0.9-0.1-1.7,0.4-2.1,1.2c-1.7,4.5-5.3,8.1-9.9,9.9c-4.3,1.7-9,1.5-13.1-0.3c-4.2-1.9-7.4-5.3-9.1-9.5c-0.3-0.7-1-1.2-1.8-1.2
	c-0.1,0-0.2,0-0.3,0c-4.8,0.8-9.7-0.6-13.5-3.6c-3.6-2.9-5.8-7-6.3-11.6c-0.5-4.6,0.8-9.1,3.7-12.6c0.6-0.7,0.6-1.7,0-2.4
	c-3.1-3.8-4.4-8.7-3.6-13.5c1.5-9.4,10.3-15.8,19.7-14.3c0.9,0.1,1.8-0.4,2.1-1.2c1.7-4.5,5.3-8.1,9.9-9.9c4.3-1.6,8.9-1.5,13.1,0.3
	c4.2,1.9,7.4,5.2,9.1,9.5c0.3,0.8,1.2,1.3,2.1,1.2c4.8-0.8,9.7,0.6,13.5,3.6c7.4,6,8.5,16.8,2.5,24.2c-0.6,0.7-0.6,1.7,0,2.4
	C227.2,151.1,228.5,156,227.7,160.8z"/>
<path class="st0" d="M218.7,62.9c-14.8,0-26.8-12-26.8-26.8c0-1-0.9-1.9-1.9-1.9H65.5c-1,0-1.9,0.9-1.9,1.9
	c0,14.8-12,26.8-26.8,26.8c-1,0-1.9,0.9-1.9,1.9v57.4c0,1,0.9,1.9,1.9,1.9c14.8,0,26.8,12,26.8,26.8c0,1,0.9,1.9,1.9,1.9h62.2
	c1,0,1.9-0.9,1.9-1.9s-0.9-1.9-1.9-1.9H67.3c-0.9-15.4-13.3-27.7-28.7-28.7V66.6c15.4-0.9,27.7-13.3,28.7-28.7h120.8
	c0.9,15.4,13.3,27.7,28.7,28.7v22.1c0,1,0.9,1.9,1.9,1.9s1.9-0.9,1.9-1.9V64.8C220.6,63.7,219.7,62.9,218.7,62.9L218.7,62.9z"/>
</svg>
