<?xml version="1.0" encoding="utf-8"?>
<!-- Generator: Adobe Illustrator 28.0.0, SVG Export Plug-In . SVG Version: 6.00 Build 0)  -->
<svg version="1.1" id="Icons" xmlns="http://www.w3.org/2000/svg" xmlns:xlink="http://www.w3.org/1999/xlink" x="0px" y="0px"
	 viewBox="0 0 60 60" style="enable-background:new 0 0 60 60;" xml:space="preserve">
<style type="text/css">
	.st0{fill:#A3A5AA;}
</style>
<path class="st0" d="M39.7,24.1c-1.5-5-5.6-8.5-10.4-8.5c-4.7,0-9.3,3.5-10.6,8.5H39.7z"/>
<circle class="st0" cx="28.6" cy="8.9" r="5.6"/>
<path class="st0" d="M38.6,56.9c-2-3.6-5.1-5.9-8.5-5.9c-3.4,0-6.7,2.4-8.8,6.1"/>
<circle class="st0" cx="29.4" cy="44.3" r="5.6"/>
<path class="st0" d="M58.4,56.9c-2-3.6-5.1-5.9-8.5-5.9c-3.4,0-6.7,2.4-8.8,6.1"/>
<circle class="st0" cx="49.2" cy="44.3" r="5.6"/>
<path class="st0" d="M18.9,56.9c-2-3.6-5.1-5.9-8.5-5.9c-3.4,0-6.7,2.4-8.8,6.1"/>
<circle class="st0" cx="9.7" cy="44.3" r="5.6"/>
<polygon class="st0" points="50.6,36.1 47.6,36.1 47.6,33.4 10.9,33.4 10.9,36.1 7.9,36.1 7.9,30.4 50.6,30.4 "/>
<rect x="27.8" y="27.1" class="st0" width="3" height="8.8"/>
</svg>
